<?xml version="1.0" encoding="UTF-8"?>
<!DOCTYPE svg PUBLIC "-//W3C//DTD SVG 1.1//EN" "http://www.w3.org/Graphics/SVG/1.1/DTD/svg11.dtd">
<!-- Creator: CorelDRAW -->
<svg xmlns="http://www.w3.org/2000/svg" xml:space="preserve" width="25.4mm" height="25.4mm" version="1.1" style="shape-rendering:geometricPrecision; text-rendering:geometricPrecision; image-rendering:optimizeQuality; fill-rule:evenodd; clip-rule:evenodd"
viewBox="0 0 197.41 197.41"
 xmlns:xlink="http://www.w3.org/1999/xlink"
 xmlns:xodm="http://www.corel.com/coreldraw/odm/2003">
 <defs>
  <style type="text/css">
   <![CDATA[
    .fil1 {fill:#373435}
    .fil0 {fill:#EC268F}
   ]]>
  </style>
 </defs>
 <g id="Camada_x0020_1">
  <metadata id="CorelCorpID_0Corel-Layer"/>
  <circle class="fil0" cx="98.7" cy="98.7" r="98.7"/>
  <g id="_2346543621104">
   <path class="fil1" d="M148.98 144.48c-1.11,0 -1.08,-0.04 -2.55,-2.15l-1.49 -2.06c-0.55,-0.73 -1.4,-2.03 -1.67,-3 -0.73,-2.66 -0.3,-1.65 -0.43,-3.98 1.34,-0.45 0.41,-1.09 0.79,-2.67 0.15,-0.63 0.37,-0.79 0.56,-1.41 0.25,-0.82 0.09,-0.87 0.05,-1.72 0.38,-0.29 0.35,-0.16 0.66,-0.65 0.06,-0.1 0.49,-0.92 0.54,-1.03l0.64 -2.68c0.26,-1.15 0.67,-1.28 1.02,-2.14 0.34,-0.83 0.51,-1.6 0.79,-2.46l1.87 -4.51c0.33,-0.72 0.68,-1.47 1.07,-2.07 0.72,-1.12 1.55,-1.97 2.5,-1.08l0.52 0.65c0.02,0.03 0.05,0.07 0.07,0.1 1.08,1.46 1.73,2.08 2.61,3.45l2.75 4.45c0.42,0.75 0.88,1.18 1.25,2l1.11 2.21c0.34,0.68 0.93,2.76 0.35,3.61 -0.37,0.53 -0.03,-0.61 -0.7,1.39l-1.69 3.38c-0.36,0.67 -0.31,0.64 -0.97,0.8l-2.86 0.49c-2.27,1.29 -2.15,6.17 -2.92,7.41 -0.18,0.3 -0.59,0.69 -0.86,0.97 -0.39,0.4 -0.59,0.58 -0.98,1l-1.21 1.06c-0.73,0.5 -0.36,0.62 -0.82,0.62zm23.99 -19.55l0 1.15c-0.04,0.61 -0.14,1.19 -0.33,1.73 -0.69,2.02 -0.31,2.1 -1.55,4.17l-0.53 0.83c-0.44,0.69 -0.63,0.93 -1.03,1.72 -0.66,1.27 -1.47,2.28 -2.2,3.44 -0.68,1.09 -0.92,0.59 -1.36,1.25 -0.14,0.21 -0.61,1.62 -0.81,2.04 0.35,0.74 0.98,2.61 0.98,3.8 0,1.18 -1.69,2.68 -2.31,3.48l-1.87 1.91c-1.47,1.33 -1.84,1.14 -3.31,0.35 -0.55,-0.29 -0.87,-0.34 -1.13,-0.98 -0.28,-0.68 0.05,-0.39 -0.47,-0.72 -1.18,-0.74 -1.19,-1.24 -1.64,-1.24 -1.36,0 -4.27,3.71 -4.93,5.32 -0.51,1.24 -0.31,1.7 -0.45,3.36 -0.1,1.16 0.28,2.28 0.45,3.39 0.52,3.46 0.73,3.45 1.37,6.23 0.67,2.92 0.9,2.9 -0.05,5.48 -2.7,0 -5.4,-0.01 -8.09,-0.01l-3.79 0.39c-0.76,0.11 -0.93,-0.25 -1.78,-0.19 -2.74,0.21 -1.9,0.1 -4.65,-0.08 -0.85,-0.05 -1.58,0.49 -2.47,0.49l-15.06 0c-0.69,0 -0.34,-0.89 -0.29,-1.6l0.29 -4.41c0.18,-1.95 -0.27,-4.56 0.21,-6.31 0.42,-1.54 0.08,-0.28 -0.14,-1.55 -0.08,-0.45 -0.03,-0.48 0.1,-0.86 0.23,-0.72 0.02,0.29 0.26,-0.65 -0.55,-0.9 -0.29,-1.28 0.14,-2.2 -0.24,-0.4 -0.42,-0.67 -0.42,-1.2l0.89 -6.32c0.2,-1.13 0,-2.4 0.28,-3.4 0.45,-1.63 0.64,-0 0.64,-2.88l-4.41 -3.27c-0.49,-0.38 -1.02,-0.55 -1.16,-1.33l-1.25 0c0,1.5 -0.35,1.65 -0.7,2.6 -1.07,-0.36 -3.34,-2.57 -4.35,-3.36 -3,-2.32 -2.76,-3.69 -2.76,-8.64 0,-4.8 0.81,-2.74 -1.03,-6.12 -0.4,-0.74 -2.53,-3.28 -3.29,-3.28 -0.56,0 -0.66,0.15 -1.1,0.62 -0.23,0.24 -0.37,0.31 -0.6,0.54 -0.34,0.36 -0.65,0.92 -1,1.37 -0.13,0.17 -0.16,0.21 -0.29,0.38 -2.23,2.97 -1.88,1.06 -1.66,7.12 0.02,0.56 -0.05,0.57 -0.08,1.16 -0.18,2.94 0.47,4.31 -1.62,6.08 -0.88,0.74 -1.58,1.47 -2.45,2.08 -0.92,0.65 -1.46,1.82 -2.63,1.82 -1.3,0 -0.98,0.28 -0.98,-1.2 0,-1.06 0.12,-1.29 -0.48,-0.94 -0.03,0.02 -0.07,0.05 -0.09,0.07l-1.24 0.87c-1.2,0.76 -5.08,3.15 -5.71,4.4 0.35,0.69 0.24,0.1 0.61,0.93 0.52,1.17 0.47,2.46 0.74,3.74 0.37,1.8 0.75,3.57 0.75,5.53l0.11 10.58c-0.05,2.35 -0.18,3.34 0.11,5.9 0.42,3.66 0.43,0.8 -0.08,3.91 -1.64,0 -2.54,-0.2 -4.01,0.05 -0.46,0.08 -1.28,0.36 -1.79,0.44 -0.63,0.09 -0.72,-0.49 -1.6,-0.49 -3.23,0 -7.92,0.51 -10.68,0.11 -0.79,-0.12 -0.62,0.32 -1.39,0.21 -0.61,-0.09 -1.1,-0.08 -1.74,-0.13l-5.15 -0.2c-2.34,-0.1 -4.91,0.35 -7.23,-0.02 -4.17,-0.67 -3.53,1.53 -1.89,-8.04 0.24,-1.4 0.45,-2.04 0.69,-3.4 0.5,-2.81 1.1,-3.96 0.2,-6.92 -0.5,-1.66 -0.42,-1.37 -1.36,-2.45 -0.61,-0.7 -1.12,-1.21 -1.78,-1.85 -0.57,-0.55 -1.24,-1.44 -1.89,-1.69l-2.07 2.43c-0.51,0.61 -1.81,1.77 -2.39,1.77 -1.96,0 -2.06,-0.76 -2.8,-1.98 -0.25,-0.4 -0.57,-0.4 -0.9,-0.7 -0.37,-0.32 -1.01,-1.36 -1.47,-1.89 -2.49,-2.84 0.26,-3.2 0.3,-6.03 -0.82,-0.13 -0.04,0.21 -0.63,-0.49 -1.18,-1.39 -1.96,-3.32 -3.13,-4.71 -1.07,-1.27 -1.8,-2.92 -2.51,-3.8 -0.29,-0.36 -0.65,-0.68 -0.98,-1 0,-3.43 -0.07,-1.64 -0.37,-3.47 -0.09,-0.58 -0.16,-1.13 -0.19,-1.66l0 -1.55c0.1,-1.41 0.48,-2.69 1.21,-3.97 0.81,-1.4 1.42,-3.2 2.15,-4.71l1.51 -3.03c0.02,-0.03 0.05,-0.08 0.06,-0.11l0.19 -0.32c0.95,-1.56 0.67,-0.68 1.24,-2.82 0.59,-2.16 2.19,-3.94 3.04,-6.03 0.24,-0.6 0.45,-1.07 0.66,-1.65l1.28 -3.36c0.18,-0.48 0.57,-1.2 0.8,-1.65 1.04,-1.99 2.03,-5.01 2.79,-6.4l1.67 -2.8c1.13,-1.47 3.39,-2.74 4.83,-3.48 0.47,-0.24 0.87,-0.52 1.29,-0.75l2.58 -1.49c1.94,-1.25 2.19,-1.33 4.37,-1.33l0 -2.6c0,-1.47 1.21,-3.67 1.94,-4.62 0.6,-0.79 1.41,-1.6 1.41,-2.97 0,-2.01 -0.2,-1.98 -1.02,-3.94 -1.5,-3.61 -2.03,-0.91 -4,-1.05l-2.52 -0.21c-0.54,-1.16 -0.82,-1.37 -1.43,-2.35 -0.57,-0.91 -0.59,-1.51 -1.36,-2.25 0.09,-1.58 0.16,-1.24 0.01,-3.01 -0.14,-1.68 -0.18,-3.14 0.52,-4.62 0.8,-1.7 1.67,-2.88 3.09,-3.36 0,-1.91 0.14,-3.05 0.14,-5 0,-4.18 -0.95,-3.14 -2.04,-2.72 -1.32,0.52 -2.14,0.06 -3.29,-0.44 -0.73,-0.32 -1.18,-0.52 -1.75,-1.29 -0.84,-1.13 -0.87,-2.3 -0.87,-3.95 0,-0.89 0.59,-2.18 1.1,-2.63 0.56,-0.5 0.5,0.01 0.9,-0.9 0.33,-0.74 0.09,-0.55 0.69,-1.02 0.89,-0.7 1.37,-0.23 2.31,-0.88l7.21 -4.05c1.57,-0.81 0.98,-0.17 3.06,-1.61 1.66,-1.15 1.93,-1.09 3.43,-0.91 0.42,0.05 0.96,0.01 1.39,0.01 1.91,-0.01 3.46,0.41 5.44,0.4 3.11,-0.01 2.34,0.34 3.8,0.75 0.46,0.13 0.94,0.09 1.26,0.2 1.06,0.37 2.89,2.39 2.89,4.05 0,2.93 -1.42,3.96 -2.67,5.37 -2.36,2.67 -1.22,3.72 -1.23,7.82 -0,1.52 -0.12,3.26 0.07,4.69 0.28,2.13 0.35,4.2 0.08,6.34 -0.6,4.8 0.77,4.44 1.26,6.33 0.16,0.64 0.21,1.75 0.13,2.25 -0.19,1.18 -0.4,0.97 -0.99,1.38 0,1.64 -0.08,3.17 -0.31,4.55 -0.2,1.18 -0.75,2.47 -0.94,3.64 -1.2,0 -5.18,0.14 -5.86,0.6 -0.13,0.87 0.23,2.73 0.73,3.35 0.82,1.02 1.11,0.75 1.08,3.05 -0.04,2.59 0.2,1.5 1.67,2.2 0.39,0.19 0.82,0.38 1.31,0.52 1.33,0.37 2.5,1 3.82,1.52 0.44,0.17 0.72,0.43 1.18,0.7 2.11,1.25 2.98,3.16 3.64,6.18 0.93,4.25 0.68,3.35 1.05,7.89l0.43 3.99c0.12,2.23 -0.05,4.49 0.19,6.73 0.22,2.04 0.07,4.51 0.23,6.66 0.11,1.45 0.44,0.01 0.56,3.8 0.04,1.42 0.42,2.5 0.42,3.99 0.52,-0.06 0.45,-0.11 0.82,-0.43 0.26,-0.23 0.45,-0.38 0.72,-0.57l2.83 -2.13c1.46,-0.97 2.94,-1.77 4.39,-2.9 0.82,-0.64 2.27,-1.25 2.68,-2.36 -1.6,0 -2.28,-0.63 -3.52,-0.94 -0.77,-0.2 -0.97,-0.32 -1.74,-0.51 -0.23,-0.06 -0.66,-0.2 -0.89,-0.32 -1.7,-0.94 -5.14,-2.38 -5.14,-5.82 0,-2.24 -0.22,-3.01 1.65,-3.83 0.62,-0.27 1.66,-0.37 2.53,-0.37 0,-1.11 -0.2,-3.2 -0.34,-4.31 -0.37,-2.9 -1.06,-6.5 0.32,-8.91 0.27,-0.48 0.56,-0.75 0.82,-1.23 0.79,-1.44 0.42,-1.07 2.13,-1.14 2.73,-0.12 2.2,-0.8 3.63,-0.8 0.06,-1.05 0.36,-1.45 0.53,-2.24 0.51,-2.29 -0.06,-5.16 2.26,-5.16 1.23,0 2.18,0.87 3.33,0.77 1.54,-0.13 1.93,-0.77 3.79,-0.77 2.04,0 1.35,5.41 2.15,7.12 0.71,1.52 2.17,0.96 3.72,1.46 3.12,1.01 2.41,0.4 3.41,3.51 0.45,1.41 0.21,5.42 0.21,7.1 0,1.25 -0.38,1.6 -0.55,2.61 -0.16,0.96 -0.16,1.99 -0.42,2.79l1.24 0.82c2.12,1.2 3.39,1.99 2.2,5.71 -0.53,1.67 -1.53,1.64 -2.62,2.24 -2.27,1.22 -2.15,1.13 -4.69,2.07l-1.66 0.61c-0.37,0.16 -1.28,0.34 -1.71,0.34 0.13,0.4 0.2,0.72 0.28,1.2 0.97,0 0.91,0.04 1.63,0.46 0.75,0.44 1.52,0.47 2.15,0.92 0.22,0.16 0.35,0.2 0.58,0.36l2.45 1.88c0.66,0.5 2.54,1.84 3.22,2.03 0.41,0.11 0.22,0.36 0.39,-0.3l0.46 -2.16c0.06,-0.97 -0,-1.65 0.09,-2.46 0.2,-1.73 0.46,-2.61 0.79,-4.07 0.22,-1 0.07,-7.24 0.33,-9.92 0.34,-3.4 0.25,-6.54 0.48,-9.91 0.03,-0.48 0.16,-1.78 0.26,-2.23l0.52 -1.85c0.15,-0.5 0.18,-0.54 0.28,-1 0.14,-0.71 -0.03,-0.28 0.2,-0.91 0.19,-0.53 0.55,-0.95 0.85,-1.38l0.88 -1.33c0.75,-1.08 2.58,-2.22 3.66,-2.74 0.84,-0.41 2.05,-0.44 2.95,-0.97 0.69,-0.41 0.68,-0.23 1.48,-0.48 0.61,-0.19 0.75,-0.53 1.31,-0.72 0,-0.55 -0.04,-1.67 0.03,-2.16 0.15,-0.97 2.83,-5.98 0.72,-5.61 -1.15,0.2 -2.85,0.39 -4,-0.18 -0.31,-0.15 -0.79,-0.31 -1.02,-0.53 -1.52,-1.41 -0.25,-7.64 -2.56,-8.52 0,-1.44 -0.07,-1.31 0.33,-2.32 1.02,-2.54 1.64,-5.45 1.11,-8.55 -0.49,-2.85 -0.2,-2.68 0.05,-5.58 0.23,-2.58 0.18,-5.3 0.18,-7.94 0,-4.3 -4.04,-3.86 -4.04,-8.4 0,-1.62 0.09,-2.61 1.03,-3.52 2.96,-2.85 3.62,-1.46 5.37,-2.3 1.62,-0.77 6.4,-0.38 8.38,-0.38l8.03 3.48c0.86,0.47 1.68,0.77 2.57,1.12l2.53 1.36c0.87,0.58 1.47,1.19 2.34,1.64l2.3 1.71c1.08,1.11 1.54,5.02 0.64,6.69 -0.24,0.44 -2.49,2.2 -2.93,2.2l-4.46 0c0,6.18 -0.44,4.81 0.88,7.34 0.33,0.64 0.54,0.97 0.8,1.66 1.29,0 1.39,0.52 1.82,1.79 0.16,0.46 0.69,2.61 0.69,3.21l-0.36 4.08c-0.27,1.52 -2.06,4 -3.03,4.65 -2.14,1.42 -2.54,1.3 -4.7,-0.34 -0.5,0.48 -1.07,1.38 -1.5,2.04 -0.69,1.04 -0.87,2.64 -0.87,4.15 0,0.49 1.78,2.36 2.38,3.59 0.49,1 0.97,3.89 0.97,5.61 0.81,0.1 0.77,0.61 1.95,0.61 1.73,0 2.25,0.56 3.7,1.49 1.07,0.69 2.11,1.53 3.22,1.98 2.47,1 4.01,2.65 5.56,5.43 0.45,0.82 0.54,1.27 0.84,2.19 0.22,0.66 0.69,1.33 1.01,1.95 0.69,1.33 1.12,2.73 1.74,4.1 0.18,0.4 0.25,0.55 0.43,0.98 0.78,1.84 1.91,3.13 1.91,5.46 0.79,-0.09 0.59,-0.64 0.9,0.5 0.41,1.52 1.61,2.95 2.48,5.06l3.71 7.67c0.21,0.44 0.34,0.79 0.56,1.19 0.81,1.45 1.57,3.68 1.69,5.81zm-128.43 -14.04c1.95,0 1.96,1.16 2.99,3.12 1.66,3.15 0.63,1.73 1.84,4.36 0.93,2.03 0.62,1.67 1.22,3.45l1.15 3.55c0.82,2.85 1.15,2.25 1.68,4.58 0.13,0.55 0.18,0.89 0.34,1.31 0.75,1.97 0.24,1.02 0.49,2.7 0.1,0.63 0.21,0.78 0.14,1.43 -0.22,2.27 -0.59,3.2 -1.59,4.73 -0.55,0.85 -0.51,1.04 -1.23,1.83 -2.41,2.66 -1.09,3.31 -3.82,3.31 -0.73,0 -1.23,-0.55 -1.92,-1.25 -1.46,-1.49 -2.32,-2.29 -2.63,-4.43 -0.23,-1.54 -0.34,-1.87 -0.34,-3.72 -3.07,-2.95 -4.52,-0.62 -6.08,-3.88 -0.2,-0.42 -0.23,-0.55 -0.44,-0.97l-1.3 -2.94c-0.59,-1.28 -0.45,-1.91 0.17,-3.36 0.87,-2.02 0.96,-2.76 2.22,-4.41 0.03,-0.04 0.12,-0.15 0.15,-0.19 0.38,-0.49 0.79,-1.04 1.13,-1.58 1.1,-1.8 1.3,-1.62 2.16,-3.3 0.4,-0.78 0.59,-1.03 1.05,-1.69 0.56,-0.81 1.76,-2.65 2.61,-2.65z"/>
   <path class="fil1" d="M112.58 138.48c0.29,0.88 0.19,1.37 1.12,1.4 -0.08,-0.49 -0.18,-1.6 -0.56,-1.6 -0.03,0 -0.51,0.18 -0.56,0.2z"/>
   <path class="fil1" d="M160.97 27.75l0.55 -0.22c-0.13,-0.7 -0.01,-0.51 -0.55,-0.58l0 0.8z"/>
   <path class="fil1" d="M159.44 126.89l-0.42 0c0.11,0.6 -0,0.44 0.42,0.6l0 -0.6z"/>
   <path class="fil1" d="M147.44 66.52c0.03,0.23 0.31,0.44 0.19,0.04 -0.05,-0.17 -0.25,-0.56 -0.19,-0.04z"/>
   <polygon class="fil1" points="159.44,126.89 159.57,126.89 159.46,126.66 "/>
  </g>
 </g>
</svg>
